{
  "accessors": [
    {
      "bufferView": 2,
      "componentType": 5126,
      "count": 52608,
      "max": [
        0.07496531307697296,
        -0.06668075919151306,
        0.2645729184150696
      ],
      "min": [
        -0.08079347759485245,
        -0.257754921913147,
        0.05070776119828224
      ],
      "type": "VEC3"
    },
    {
      "bufferView": 2,
      "byteOffset": 631296,
      "componentType": 5126,
      "count": 52608,
      "max": [
        0.9999218583106995,
        0.9998685717582703,
        0.9992859363555908
      ],
      "min": [
        -0.9999866485595703,
        -0.9999715685844421,
        -0.9991055727005005
      ],
      "type": "VEC3"
    },
    {
      "bufferView": 1,
      "componentType": 5126,
      "count": 52608,
      "max": [
        1.0,
        1.0
      ],
      "min": [
        0.0,
        0.0
      ],
      "type": "VEC2"
    },
    {
      "bufferView": 0,
      "componentType": 5125,
      "count": 78912,
      "type": "SCALAR"
    }
  ],
  "asset": {
    "extras": {
      "author": "Mckai (https://sketchfab.com/Mckai)",
      "license": "CC-BY-4.0 (http://creativecommons.org/licenses/by/4.0/)",
      "source": "https://sketchfab.com/3d-models/gold-necklace-chain-8bb2ebea4fbd4a3a9b21cba9f5d5fdc8",
      "title": "Gold necklace / chain"
    },
    "generator": "Sketchfab-12.68.0",
    "version": "2.0"
  },
  "bufferViews": [
    {
      "buffer": 0,
      "byteLength": 315648,
      "name": "floatBufferViews",
      "target": 34963
    },
    {
      "buffer": 0,
      "byteLength": 420864,
      "byteOffset": 315648,
      "byteStride": 8,
      "name": "floatBufferViews",
      "target": 34962
    },
    {
      "buffer": 0,
      "byteLength": 1262592,
      "byteOffset": 736512,
      "byteStride": 12,
      "name": "floatBufferViews",
      "target": 34962
    }
  ],
  "buffers": [
    {
      "byteLength": 1999104,
      "uri": "scene.bin"
    }
  ],
  "materials": [
    {
      "doubleSided": true,
      "emissiveFactor": [
        0.03564081245896186,
        0.02990177737040418,
        0.00780464634911195
      ],
      "name": "Silver",
      "pbrMetallicRoughness": {
        "baseColorFactor": [
          0.467201,
          0.27386,
          0.0763361,
          1.0
        ],
        "roughnessFactor": 0.052025477518742105
      }
    }
  ],
  "meshes": [
    {
      "name": "Neclace_Silver_0",
      "primitives": [
        {
          "attributes": {
            "NORMAL": 1,
            "POSITION": 0,
            "TEXCOORD_0": 2
          },
          "indices": 3,
          "material": 0,
          "mode": 4
        }
      ]
    }
  ],
  "nodes": [
    {
      "children": [
        1
      ],
      "matrix": [
        0.01359359361231327,
        0.0,
        0.0,
        0.0,
        0.0,
        3.0183841231575294e-18,
        -0.01359359361231327,
        0.0,
        0.0,
        0.01359359361231327,
        3.0183841231575294e-18,
        0.0,
        0.0,
        0.0,
        0.0,
        1.0
      ],
      "name": "Sketchfab_model"
    },
    {
      "children": [
        2
      ],
      "matrix": [
        1.0,
        0.0,
        0.0,
        0.0,
        0.0,
        0.0,
        1.0,
        0.0,
        0.0,
        -1.0,
        0.0,
        0.0,
        0.0,
        0.0,
        0.0,
        1.0
      ],
      "name": "Neclace.fbx"
    },
    {
      "children": [
        3
      ],
      "name": "RootNode"
    },
    {
      "children": [
        4
      ],
      "matrix": [
        100.0,
        0.0,
        0.0,
        0.0,
        0.0,
        99.9999999999999,
        4.371138828673792e-06,
        0.0,
        0.0,
        -4.371138828673792e-06,
        99.9999999999999,
        0.0,
        0.0,
        153.65164184570313,
        -12.305885314941406,
        1.0
      ],
      "name": "Neclace"
    },
    {
      "mesh": 0,
      "name": "Neclace_Silver_0"
    }
  ],
  "scene": 0,
  "scenes": [
    {
      "name": "Sketchfab_Scene",
      "nodes": [
        0
      ]
    }
  ]
}
