{
  "accessors": [
    {
      "bufferView": 2,
      "componentType": 5126,
      "count": 65532,
      "max": [
        2.1229519844055176,
        0.7680789828300476,
        1.3868579864501953
      ],
      "min": [
        -2.1229519844055176,
        -0.7680789828300476,
        -1.3868579864501953
      ],
      "type": "VEC3"
    },
    {
      "bufferView": 2,
      "byteOffset": 786384,
      "componentType": 5126,
      "count": 65532,
      "max": [
        0.9999904632568359,
        0.999996542930603,
        0.9999966621398926
      ],
      "min": [
        -0.9999979734420776,
        -0.9999949932098389,
        -0.9999719858169556
      ],
      "type": "VEC3"
    },
    {
      "bufferView": 1,
      "componentType": 5126,
      "count": 65532,
      "max": [
        0.9902099967002869,
        0.9999510049819946
      ],
      "min": [
        1.4999999621068127e-05,
        2.5999999706982635e-05
      ],
      "type": "VEC2"
    },
    {
      "bufferView": 0,
      "componentType": 5125,
      "count": 314775,
      "type": "SCALAR"
    },
    {
      "bufferView": 2,
      "byteOffset": 1572768,
      "componentType": 5126,
      "count": 65532,
      "max": [
        2.1229519844055176,
        0.7680789828300476,
        1.3726099729537964
      ],
      "min": [
        -2.095961093902588,
        -0.7680789828300476,
        -1.3831369876861572
      ],
      "type": "VEC3"
    },
    {
      "bufferView": 2,
      "byteOffset": 2359152,
      "componentType": 5126,
      "count": 65532,
      "max": [
        0.9999904632568359,
        0.9999970197677612,
        0.9999995231628418
      ],
      "min": [
        -0.9999962449073792,
        -0.9999949932098389,
        -0.9999964833259583
      ],
      "type": "VEC3"
    },
    {
      "bufferView": 1,
      "byteOffset": 524256,
      "componentType": 5126,
      "count": 65532,
      "max": [
        0.9927089810371399,
        0.9999510049819946
      ],
      "min": [
        0.002876000013202429,
        0.0038920000661164522
      ],
      "type": "VEC2"
    },
    {
      "bufferView": 0,
      "byteOffset": 1259100,
      "componentType": 5125,
      "count": 310815,
      "type": "SCALAR"
    },
    {
      "bufferView": 2,
      "byteOffset": 3145536,
      "componentType": 5126,
      "count": 65532,
      "max": [
        1.343425989151001,
        0.7308340072631836,
        1.3851799964904785
      ],
      "min": [
        -2.1223950386047363,
        -0.7663220167160034,
        -1.3865970373153687
      ],
      "type": "VEC3"
    },
    {
      "bufferView": 2,
      "byteOffset": 3931920,
      "componentType": 5126,
      "count": 65532,
      "max": [
        0.9999752640724182,
        0.9999932646751404,
        0.9999803304672241
      ],
      "min": [
        -0.9999582171440125,
        -0.9999868869781494,
        -0.9999897480010986
      ],
      "type": "VEC3"
    },
    {
      "bufferView": 1,
      "byteOffset": 1048512,
      "componentType": 5126,
      "count": 65532,
      "max": [
        0.9922400116920471,
        0.9897500276565552
      ],
      "min": [
        0.0019379999721422791,
        3.199999991920777e-05
      ],
      "type": "VEC2"
    },
    {
      "bufferView": 0,
      "byteOffset": 2502360,
      "componentType": 5125,
      "count": 270507,
      "type": "SCALAR"
    },
    {
      "bufferView": 2,
      "byteOffset": 4718304,
      "componentType": 5126,
      "count": 1862,
      "max": [
        1.3877589702606201,
        0.7352439761161804,
        1.3857719898223877
      ],
      "min": [
        0.9921309947967529,
        -0.5420910120010376,
        -0.0643099993467331
      ],
      "type": "VEC3"
    },
    {
      "bufferView": 2,
      "byteOffset": 4740648,
      "componentType": 5126,
      "count": 1862,
      "max": [
        0.9993250966072083,
        0.9995625019073486,
        0.9999025464057922
      ],
      "min": [
        -0.9999332427978516,
        -0.9999155402183533,
        -0.9985358715057373
      ],
      "type": "VEC3"
    },
    {
      "bufferView": 1,
      "byteOffset": 1572768,
      "componentType": 5126,
      "count": 1862,
      "max": [
        0.9919009804725647,
        0.950128972530365
      ],
      "min": [
        0.0019990000873804092,
        0.1095229983329773
      ],
      "type": "VEC2"
    },
    {
      "bufferView": 0,
      "byteOffset": 3584388,
      "componentType": 5125,
      "count": 4071,
      "type": "SCALAR"
    }
  ],
  "asset": {
    "extras": {
      "author": "Andrea Spognetta (Spogna) (https://sketchfab.com/spogna)",
      "license": "CC-BY-4.0 (http://creativecommons.org/licenses/by/4.0/)",
      "source": "https://sketchfab.com/3d-models/hat-01-rawscan-bbed960e1cfd4ede8d0cf4755532865b",
      "title": "Hat 01  .::RAWscan::."
    },
    "generator": "Sketchfab-12.67.0",
    "version": "2.0"
  },
  "bufferViews": [
    {
      "buffer": 0,
      "byteLength": 3600672,
      "name": "floatBufferViews",
      "target": 34963
    },
    {
      "buffer": 0,
      "byteLength": 1587664,
      "byteOffset": 3600672,
      "byteStride": 8,
      "name": "floatBufferViews",
      "target": 34962
    },
    {
      "buffer": 0,
      "byteLength": 4762992,
      "byteOffset": 5188336,
      "byteStride": 12,
      "name": "floatBufferViews",
      "target": 34962
    }
  ],
  "buffers": [
    {
      "byteLength": 9951328,
      "uri": "scene.bin"
    }
  ],
  "images": [
    {
      "uri": "textures/material_0_baseColor.jpeg"
    },
    {
      "uri": "textures/material_0_metallicRoughness.png"
    }
  ],
  "materials": [
    {
      "doubleSided": true,
      "name": "material_0",
      "occlusionTexture": {
        "index": 1,
        "strength": 0.6149162861491628
      },
      "pbrMetallicRoughness": {
        "baseColorTexture": {
          "index": 0
        },
        "metallicFactor": 0.0,
        "metallicRoughnessTexture": {
          "index": 1
        },
        "roughnessFactor": 0.0
      }
    }
  ],
  "meshes": [
    {
      "name": "Object_0",
      "primitives": [
        {
          "attributes": {
            "NORMAL": 1,
            "POSITION": 0,
            "TEXCOORD_0": 2
          },
          "indices": 3,
          "material": 0,
          "mode": 4
        }
      ]
    },
    {
      "name": "Object_1",
      "primitives": [
        {
          "attributes": {
            "NORMAL": 5,
            "POSITION": 4,
            "TEXCOORD_0": 6
          },
          "indices": 7,
          "material": 0,
          "mode": 4
        }
      ]
    },
    {
      "name": "Object_2",
      "primitives": [
        {
          "attributes": {
            "NORMAL": 9,
            "POSITION": 8,
            "TEXCOORD_0": 10
          },
          "indices": 11,
          "material": 0,
          "mode": 4
        }
      ]
    },
    {
      "name": "Object_3",
      "primitives": [
        {
          "attributes": {
            "NORMAL": 13,
            "POSITION": 12,
            "TEXCOORD_0": 14
          },
          "indices": 15,
          "material": 0,
          "mode": 4
        }
      ]
    }
  ],
  "nodes": [
    {
      "children": [
        1
      ],
      "matrix": [
        1.0,
        0.0,
        0.0,
        0.0,
        0.0,
        -1.0,
        -4.440892098500626e-16,
        0.0,
        0.0,
        4.440892098500626e-16,
        -1.0,
        0.0,
        0.0,
        -8.940696716308588e-07,
        -2.4437904357910156e-06,
        1.0
      ],
      "name": "Sketchfab_model"
    },
    {
      "children": [
        2,
        3,
        4,
        5
      ],
      "name": "cappello.obj.cleaner.materialmerger.gles"
    },
    {
      "mesh": 0,
      "name": "Object_2"
    },
    {
      "mesh": 1,
      "name": "Object_3"
    },
    {
      "mesh": 2,
      "name": "Object_4"
    },
    {
      "mesh": 3,
      "name": "Object_5"
    }
  ],
  "samplers": [
    {
      "magFilter": 9729,
      "minFilter": 9987,
      "wrapS": 10497,
      "wrapT": 10497
    }
  ],
  "scene": 0,
  "scenes": [
    {
      "name": "Sketchfab_Scene",
      "nodes": [
        0
      ]
    }
  ],
  "textures": [
    {
      "sampler": 0,
      "source": 0
    },
    {
      "sampler": 0,
      "source": 1
    }
  ]
}
