{
  "accessors": [
    {
      "bufferView": 1,
      "componentType": 5126,
      "count": 16796,
      "max": [
        0.2005900740623474,
        0.17023858428001404,
        0.007168829441070557
      ],
      "min": [
        -0.012682609260082245,
        -0.04068167507648468,
        -0.5123210549354553
      ],
      "type": "VEC3"
    },
    {
      "bufferView": 1,
      "byteOffset": 201552,
      "componentType": 5126,
      "count": 16796,
      "max": [
        0.9989603757858276,
        0.9966583251953125,
        1.0
      ],
      "min": [
        -0.9989603757858276,
        -0.9965856075286865,
        -1.0
      ],
      "type": "VEC3"
    },
    {
      "bufferView": 0,
      "componentType": 5125,
      "count": 19392,
      "type": "SCALAR"
    },
    {
      "bufferView": 1,
      "byteOffset": 403104,
      "componentType": 5126,
      "count": 20077,
      "max": [
        50.88571548461914,
        36.93853759765625,
        2.399484634399414
      ],
      "min": [
        -5.214953422546387,
        -5.0669779777526855,
        0.0
      ],
      "type": "VEC3"
    },
    {
      "bufferView": 1,
      "byteOffset": 644028,
      "componentType": 5126,
      "count": 20077,
      "max": [
        0.9998608827590942,
        0.9999997615814209,
        1.0
      ],
      "min": [
        -1.0,
        -0.9999995231628418,
        -1.0
      ],
      "type": "VEC3"
    },
    {
      "bufferView": 0,
      "byteOffset": 77568,
      "componentType": 5125,
      "count": 36888,
      "type": "SCALAR"
    }
  ],
  "asset": {
    "extras": {
      "author": "DineshThennarasan (https://sketchfab.com/dineshthennarasan)",
      "license": "CC-BY-4.0 (http://creativecommons.org/licenses/by/4.0/)",
      "source": "https://sketchfab.com/3d-models/gold-leaf-earring-64c4c78a861d45a28aa1b78873b02d14",
      "title": "Gold leaf Earring"
    },
    "generator": "Sketchfab-12.67.0",
    "version": "2.0"
  },
  "bufferViews": [
    {
      "buffer": 0,
      "byteLength": 225120,
      "name": "floatBufferViews",
      "target": 34963
    },
    {
      "buffer": 0,
      "byteLength": 884952,
      "byteOffset": 225120,
      "byteStride": 12,
      "name": "floatBufferViews",
      "target": 34962
    }
  ],
  "buffers": [
    {
      "byteLength": 1110072,
      "uri": "scene.bin"
    }
  ],
  "extensionsRequired": [
    "KHR_materials_pbrSpecularGlossiness"
  ],
  "extensionsUsed": [
    "KHR_materials_pbrSpecularGlossiness"
  ],
  "materials": [
    {
      "doubleSided": true,
      "extensions": {
        "KHR_materials_pbrSpecularGlossiness": {
          "diffuseFactor": [
            0.0,
            0.0,
            0.0,
            1.0
          ],
          "glossinessFactor": 1.0,
          "specularFactor": [
            0.8713671191987972,
            0.7156935005064807,
            0.19120168274079138
          ]
        }
      },
      "name": "Material.001"
    },
    {
      "doubleSided": true,
      "extensions": {
        "KHR_materials_pbrSpecularGlossiness": {
          "diffuseFactor": [
            0.0,
            0.0,
            0.0,
            1.0
          ],
          "glossinessFactor": 1.0,
          "specularFactor": [
            0.8713671191987972,
            0.7156935005064807,
            0.19120168274079138
          ]
        }
      },
      "name": "Material.002"
    }
  ],
  "meshes": [
    {
      "name": "Cylinder_Material.001_0",
      "primitives": [
        {
          "attributes": {
            "NORMAL": 1,
            "POSITION": 0
          },
          "indices": 2,
          "material": 0,
          "mode": 4
        }
      ]
    },
    {
      "name": "Feathers-1_Material.002_0",
      "primitives": [
        {
          "attributes": {
            "NORMAL": 4,
            "POSITION": 3
          },
          "indices": 5,
          "material": 1,
          "mode": 4
        }
      ]
    }
  ],
  "nodes": [
    {
      "children": [
        1
      ],
      "matrix": [
        1.0,
        0.0,
        0.0,
        0.0,
        0.0,
        2.220446049250313e-16,
        -1.0,
        0.0,
        0.0,
        1.0,
        2.220446049250313e-16,
        0.0,
        0.0,
        0.0,
        0.0,
        1.0
      ],
      "name": "Sketchfab_model"
    },
    {
      "children": [
        2
      ],
      "matrix": [
        1.0,
        0.0,
        0.0,
        0.0,
        0.0,
        0.0,
        1.0,
        0.0,
        0.0,
        -1.0,
        0.0,
        0.0,
        0.0,
        0.0,
        0.0,
        1.0
      ],
      "name": "6c25bfb888744542823f1781a1882b90.fbx"
    },
    {
      "children": [
        3,
        5,
        7,
        10
      ],
      "name": "RootNode"
    },
    {
      "children": [
        4
      ],
      "matrix": [
        -29.86302396340271,
        -278.00144016515674,
        -63.32309713119095,
        0.0,
        283.979330906655,
        -23.305529710695392,
        -31.607909771764163,
        0.0,
        25.503068246386004,
        -66.01869025011538,
        277.8084620959299,
        0.0,
        -7.252583026885986,
        605.0363159179688,
        109.20710754394531,
        1.0
      ],
      "name": "Cylinder"
    },
    {
      "mesh": 0,
      "name": "Cylinder_Material.001_0"
    },
    {
      "children": [
        6
      ],
      "matrix": [
        4.181296218077757,
        -6.249947288761376,
        0.8260274962064789,
        0.0,
        -6.118204875404474,
        -4.261940626843401,
        -1.2770487223400844,
        0.0,
        1.520442631680531,
        0.03779485021118317,
        -7.410413372623828,
        0.0,
        0.0,
        581.74755859375,
        0.0,
        1.0
      ],
      "name": "Feathers-1"
    },
    {
      "mesh": 1,
      "name": "Feathers-1_Material.002_0"
    },
    {
      "children": [
        8
      ],
      "matrix": [
        -29.08647719990347,
        -5.518906457566863,
        -95.51711910171437,
        0.0,
        56.63930913109449,
        79.46723428563203,
        -21.83912397841966,
        0.0,
        77.11008775993375,
        -60.45246356562044,
        -19.98834696773717,
        0.0,
        407.6245422363281,
        590.38623046875,
        -100.54539489746094,
        1.0
      ],
      "name": "Lamp"
    },
    {
      "children": [
        9
      ],
      "matrix": [
        1.0,
        0.0,
        0.0,
        0.0,
        0.0,
        2.220446049250313e-16,
        1.0,
        0.0,
        0.0,
        -1.0,
        2.220446049250313e-16,
        0.0,
        0.0,
        0.0,
        0.0,
        1.0
      ],
      "name": "Object_8"
    },
    {
      "name": "Object_9"
    },
    {
      "children": [
        11
      ],
      "matrix": [
        -65.15583280329096,
        -44.52713576570858,
        -61.41703047373549,
        0.0,
        -32.40134137821245,
        89.53957451233616,
        -30.542088974418615,
        0.0,
        68.59205472129975,
        -1.0718647115348782e-05,
        -72.7676336239627,
        0.0,
        748.1131591796875,
        534.3665161132813,
        650.7639770507813,
        1.0
      ],
      "name": "Camera"
    },
    {
      "name": "Object_11"
    }
  ],
  "scene": 0,
  "scenes": [
    {
      "name": "Sketchfab_Scene",
      "nodes": [
        0
      ]
    }
  ]
}
