{
  "accessors": [
    {
      "bufferView": 1,
      "componentType": 5126,
      "count": 1488,
      "max": [
        0.9805799722671509,
        0.8971099853515625,
        1.0959500074386597
      ],
      "min": [
        -0.9805799722671509,
        -1.2513500452041626,
        -1.9558500051498413
      ],
      "type": "VEC3"
    },
    {
      "bufferView": 1,
      "byteOffset": 17856,
      "componentType": 5126,
      "count": 1488,
      "max": [
        0.9998704791069031,
        0.9845873117446899,
        0.9838382005691528
      ],
      "min": [
        -0.9998704791069031,
        -0.9715097546577454,
        -0.9409286379814148
      ],
      "type": "VEC3"
    },
    {
      "bufferView": 0,
      "componentType": 5125,
      "count": 2232,
      "type": "SCALAR"
    }
  ],
  "asset": {
    "extras": {
      "author": "torchwurm (https://sketchfab.com/torchwurm)",
      "license": "CC-BY-4.0 (http://creativecommons.org/licenses/by/4.0/)",
      "source": "https://sketchfab.com/3d-models/head-base-mesh-660e8173c2014cc48a785caf862da7a6",
      "title": "Head Base Mesh"
    },
    "generator": "Sketchfab-12.68.0",
    "version": "2.0"
  },
  "bufferViews": [
    {
      "buffer": 0,
      "byteLength": 8928,
      "name": "floatBufferViews",
      "target": 34963
    },
    {
      "buffer": 0,
      "byteLength": 35712,
      "byteOffset": 8928,
      "byteStride": 12,
      "name": "floatBufferViews",
      "target": 34962
    }
  ],
  "buffers": [
    {
      "byteLength": 44640,
      "uri": "scene.bin"
    }
  ],
  "materials": [
    {
      "doubleSided": true,
      "name": "Material",
      "pbrMetallicRoughness": {
        "baseColorFactor": [
          0.800000011920929,
          0.800000011920929,
          0.800000011920929,
          1.0
        ],
        "metallicFactor": 0.0,
        "roughnessFactor": 0.6
      }
    }
  ],
  "meshes": [
    {
      "name": "Head_basemesh_0",
      "primitives": [
        {
          "attributes": {
            "NORMAL": 1,
            "POSITION": 0
          },
          "indices": 2,
          "material": 0,
          "mode": 4
        }
      ]
    }
  ],
  "nodes": [
    {
      "children": [
        1
      ],
      "matrix": [
        1.0,
        0.0,
        0.0,
        0.0,
        0.0,
        2.220446049250313e-16,
        -1.0,
        0.0,
        0.0,
        1.0,
        2.220446049250313e-16,
        0.0,
        0.0,
        0.0,
        0.0,
        1.0
      ],
      "name": "Sketchfab_model"
    },
    {
      "children": [
        2
      ],
      "name": "Root"
    },
    {
      "children": [
        3
      ],
      "name": "Head_basemesh"
    },
    {
      "mesh": 0,
      "name": "Head_basemesh_0"
    }
  ],
  "scene": 0,
  "scenes": [
    {
      "name": "Sketchfab_Scene",
      "nodes": [
        0
      ]
    }
  ]
}
