{
  "accessors": [
    {
      "bufferView": 2,
      "componentType": 5126,
      "count": 59904,
      "max": [
        0.4356403946876526,
        0.3956543803215027,
        0.436631977558136
      ],
      "min": [
        -0.43207764625549316,
        0.013196962885558605,
        -0.43419766426086426
      ],
      "type": "VEC3"
    },
    {
      "bufferView": 2,
      "byteOffset": 718848,
      "componentType": 5126,
      "count": 59904,
      "max": [
        0.9999935626983643,
        0.9991393089294434,
        0.999993085861206
      ],
      "min": [
        -0.999994158744812,
        -0.9856836795806885,
        -0.9998694658279419
      ],
      "type": "VEC3"
    },
    {
      "bufferView": 1,
      "componentType": 5126,
      "count": 59904,
      "max": [
        0.8565890789031982,
        1.0
      ],
      "min": [
        0.375,
        0.0
      ],
      "type": "VEC2"
    },
    {
      "bufferView": 0,
      "componentType": 5125,
      "count": 179712,
      "type": "SCALAR"
    },
    {
      "bufferView": 2,
      "byteOffset": 1437696,
      "componentType": 5126,
      "count": 30359,
      "max": [
        0.44874516129493713,
        0.43715789914131165,
        0.4486912190914154
      ],
      "min": [
        -0.4438070058822632,
        -0.004628472961485386,
        -0.4462713599205017
      ],
      "type": "VEC3"
    },
    {
      "bufferView": 2,
      "byteOffset": 1802004,
      "componentType": 5126,
      "count": 30359,
      "max": [
        0.9999762773513794,
        0.9998704195022583,
        0.9998321533203125
      ],
      "min": [
        -0.9999762773513794,
        -0.9999978542327881,
        -0.9999544620513916
      ],
      "type": "VEC3"
    },
    {
      "bufferView": 3,
      "componentType": 5126,
      "count": 30359,
      "max": [
        0.9994679093360901,
        0.9994770884513855,
        0.9999863505363464,
        1.0
      ],
      "min": [
        -0.9996233582496643,
        -0.9999555945396423,
        -0.9999386668205261,
        -1.0
      ],
      "type": "VEC4"
    },
    {
      "bufferView": 1,
      "byteOffset": 479232,
      "componentType": 5126,
      "count": 30359,
      "max": [
        50.91172790527344,
        20.238731384277344
      ],
      "min": [
        -49.9035530090332,
        -19.541250228881836
      ],
      "type": "VEC2"
    },
    {
      "bufferView": 1,
      "byteOffset": 722104,
      "componentType": 5126,
      "count": 30359,
      "max": [
        50.91172790527344,
        20.238731384277344
      ],
      "min": [
        -49.9035530090332,
        -19.541250228881836
      ],
      "type": "VEC2"
    },
    {
      "bufferView": 1,
      "byteOffset": 964976,
      "componentType": 5126,
      "count": 30359,
      "max": [
        50.91172790527344,
        20.238731384277344
      ],
      "min": [
        -49.9035530090332,
        -19.541250228881836
      ],
      "type": "VEC2"
    },
    {
      "bufferView": 0,
      "byteOffset": 718848,
      "componentType": 5125,
      "count": 158208,
      "type": "SCALAR"
    }
  ],
  "asset": {
    "extras": {
      "author": "Boxroom 3D (https://sketchfab.com/Boxroom_3D)",
      "license": "CC-BY-4.0 (http://creativecommons.org/licenses/by/4.0/)",
      "source": "https://sketchfab.com/3d-models/bucket-hat-38d07cea51d04e9fb419376d1fdaa77e",
      "title": "Bucket Hat"
    },
    "generator": "Sketchfab-12.68.0",
    "version": "2.0"
  },
  "bufferViews": [
    {
      "buffer": 0,
      "byteLength": 1351680,
      "name": "floatBufferViews",
      "target": 34963
    },
    {
      "buffer": 0,
      "byteLength": 1207848,
      "byteOffset": 1351680,
      "byteStride": 8,
      "name": "floatBufferViews",
      "target": 34962
    },
    {
      "buffer": 0,
      "byteLength": 2166312,
      "byteOffset": 2559528,
      "byteStride": 12,
      "name": "floatBufferViews",
      "target": 34962
    },
    {
      "buffer": 0,
      "byteLength": 485744,
      "byteOffset": 4725840,
      "byteStride": 16,
      "name": "floatBufferViews",
      "target": 34962
    }
  ],
  "buffers": [
    {
      "byteLength": 5211584,
      "uri": "scene.bin"
    }
  ],
  "images": [
    {
      "uri": "textures/Cubo_metallicRoughness.png"
    },
    {
      "uri": "textures/Cubo_normal.png"
    }
  ],
  "materials": [
    {
      "doubleSided": true,
      "name": "Hilos",
      "pbrMetallicRoughness": {
        "baseColorFactor": [
          0.00256554,
          0.00268215,
          0.00580046,
          1.0
        ],
        "metallicFactor": 0.0,
        "roughnessFactor": 0.5
      }
    },
    {
      "name": "Cubo",
      "normalTexture": {
        "index": 1
      },
      "pbrMetallicRoughness": {
        "baseColorFactor": [
          0.0025823,
          0.00238339,
          0.00450636,
          1.0
        ],
        "metallicFactor": 0.0,
        "metallicRoughnessTexture": {
          "index": 0
        }
      }
    }
  ],
  "meshes": [
    {
      "name": "Object_0",
      "primitives": [
        {
          "attributes": {
            "NORMAL": 1,
            "POSITION": 0,
            "TEXCOORD_0": 2
          },
          "indices": 3,
          "material": 0,
          "mode": 4
        }
      ]
    },
    {
      "name": "Object_1",
      "primitives": [
        {
          "attributes": {
            "NORMAL": 5,
            "POSITION": 4,
            "TANGENT": 6,
            "TEXCOORD_0": 7,
            "TEXCOORD_1": 8,
            "TEXCOORD_2": 9
          },
          "indices": 10,
          "material": 1,
          "mode": 4
        }
      ]
    }
  ],
  "nodes": [
    {
      "children": [
        1
      ],
      "matrix": [
        1.0,
        0.0,
        0.0,
        0.0,
        0.0,
        2.220446049250313e-16,
        -1.0,
        0.0,
        0.0,
        1.0,
        2.220446049250313e-16,
        0.0,
        0.0,
        0.0,
        0.0,
        1.0
      ],
      "name": "Sketchfab_model"
    },
    {
      "children": [
        2
      ],
      "name": "root"
    },
    {
      "children": [
        3
      ],
      "matrix": [
        1.0,
        0.0,
        0.0,
        0.0,
        0.0,
        2.220446049250313e-16,
        1.0,
        0.0,
        0.0,
        -1.0,
        2.220446049250313e-16,
        0.0,
        0.0,
        0.0,
        0.0,
        1.0
      ],
      "name": "GLTF_SceneRootNode"
    },
    {
      "children": [
        4,
        5
      ],
      "name": "Hilo05.001_0"
    },
    {
      "mesh": 0,
      "name": "Object_4"
    },
    {
      "mesh": 1,
      "name": "Object_5"
    }
  ],
  "samplers": [
    {
      "magFilter": 9729,
      "minFilter": 9987,
      "wrapS": 10497,
      "wrapT": 10497
    }
  ],
  "scene": 0,
  "scenes": [
    {
      "name": "Sketchfab_Scene",
      "nodes": [
        0
      ]
    }
  ],
  "textures": [
    {
      "sampler": 0,
      "source": 0
    },
    {
      "sampler": 0,
      "source": 1
    }
  ]
}
