{
  "accessors": [
    {
      "bufferView": 2,
      "componentType": 5126,
      "count": 22328,
      "max": [
        1.0099765062332153,
        0.30462437868118286,
        0.16478267312049866
      ],
      "min": [
        -1.0100760459899902,
        -0.3883924186229706,
        -0.03970158100128174
      ],
      "type": "VEC3"
    },
    {
      "bufferView": 2,
      "byteOffset": 267936,
      "componentType": 5126,
      "count": 22328,
      "max": [
        0.9999330043792725,
        0.9999976754188538,
        0.9999822974205017
      ],
      "min": [
        -0.999950647354126,
        -1.0,
        -0.9999998807907104
      ],
      "type": "VEC3"
    },
    {
      "bufferView": 1,
      "componentType": 5126,
      "count": 22328,
      "max": [
        0.7620599865913391,
        0.9980499744415283
      ],
      "min": [
        0.0019499999471008778,
        0.0019600000232458115
      ],
      "type": "VEC2"
    },
    {
      "bufferView": 0,
      "componentType": 5125,
      "count": 122208,
      "type": "SCALAR"
    },
    {
      "bufferView": 2,
      "byteOffset": 535872,
      "componentType": 5126,
      "count": 13310,
      "max": [
        1.0079066753387451,
        0.23205721378326416,
        -0.037404369562864304
      ],
      "min": [
        -1.0078390836715698,
        -0.17230546474456787,
        -1.7524640560150146
      ],
      "type": "VEC3"
    },
    {
      "bufferView": 2,
      "byteOffset": 695592,
      "componentType": 5126,
      "count": 13310,
      "max": [
        0.9999811053276062,
        1.0,
        1.0
      ],
      "min": [
        -0.9999909400939941,
        -1.0,
        -0.9994367957115173
      ],
      "type": "VEC3"
    },
    {
      "bufferView": 1,
      "byteOffset": 178624,
      "componentType": 5126,
      "count": 13310,
      "max": [
        0.9918529987335205,
        0.946331262588501
      ],
      "min": [
        0.008147003129124641,
        0.008147003129124641
      ],
      "type": "VEC2"
    },
    {
      "bufferView": 0,
      "byteOffset": 488832,
      "componentType": 5125,
      "count": 65760,
      "type": "SCALAR"
    },
    {
      "bufferView": 2,
      "byteOffset": 855312,
      "componentType": 5126,
      "count": 32261,
      "max": [
        0.9215558171272278,
        0.2608802914619446,
        0.12176568061113358
      ],
      "min": [
        -0.9215555787086487,
        -0.3407418429851532,
        -0.005788560025393963
      ],
      "type": "VEC3"
    },
    {
      "bufferView": 2,
      "byteOffset": 1242444,
      "componentType": 5126,
      "count": 32261,
      "max": [
        0.9998304843902588,
        0.9999881386756897,
        0.9999764561653137
      ],
      "min": [
        -0.9998286962509155,
        -0.9999537467956543,
        -0.9999985694885254
      ],
      "type": "VEC3"
    },
    {
      "bufferView": 1,
      "byteOffset": 285104,
      "componentType": 5126,
      "count": 32261,
      "max": [
        0.9511200189590454,
        0.9980499744415283
      ],
      "min": [
        0.7505199909210205,
        0.4096999764442444
      ],
      "type": "VEC2"
    },
    {
      "bufferView": 0,
      "byteOffset": 751872,
      "componentType": 5125,
      "count": 173952,
      "type": "SCALAR"
    }
  ],
  "asset": {
    "extras": {
      "author": "Marius.Eder (https://sketchfab.com/Marius.Eder)",
      "license": "CC-BY-4.0 (http://creativecommons.org/licenses/by/4.0/)",
      "source": "https://sketchfab.com/3d-models/glasses-007651a9450746a5b6c5a126d484cd52",
      "title": "Glasses"
    },
    "generator": "Sketchfab-12.67.0",
    "version": "2.0"
  },
  "bufferViews": [
    {
      "buffer": 0,
      "byteLength": 1447680,
      "name": "floatBufferViews",
      "target": 34963
    },
    {
      "buffer": 0,
      "byteLength": 543192,
      "byteOffset": 1447680,
      "byteStride": 8,
      "name": "floatBufferViews",
      "target": 34962
    },
    {
      "buffer": 0,
      "byteLength": 1629576,
      "byteOffset": 1990872,
      "byteStride": 12,
      "name": "floatBufferViews",
      "target": 34962
    }
  ],
  "buffers": [
    {
      "byteLength": 3620448,
      "uri": "scene.bin"
    }
  ],
  "extensionsUsed": [
    "KHR_materials_transmission"
  ],
  "images": [
    {
      "uri": "textures/Handles_baseColor.jpeg"
    },
    {
      "uri": "textures/Handles_metallicRoughness.png"
    }
  ],
  "materials": [
    {
      "name": "Frame",
      "pbrMetallicRoughness": {
        "baseColorFactor": [
          0.005572829822086463,
          0.005572829822086463,
          0.005572829822086463,
          1.0
        ],
        "metallicFactor": 0.0,
        "roughnessFactor": 0.15415396341463414
      }
    },
    {
      "name": "Handles",
      "pbrMetallicRoughness": {
        "baseColorTexture": {
          "index": 0
        },
        "metallicFactor": 0.0,
        "metallicRoughnessTexture": {
          "index": 1
        }
      }
    },
    {
      "alphaMode": "BLEND",
      "extensions": {
        "KHR_materials_transmission": {
          "transmissionFactor": 1.0
        }
      },
      "name": "Frame.1",
      "pbrMetallicRoughness": {
        "baseColorFactor": [
          1.0,
          1.0,
          1.0,
          0.25
        ],
        "metallicFactor": 0.0,
        "roughnessFactor": 0.22732469512195122
      }
    }
  ],
  "meshes": [
    {
      "name": "Object_0",
      "primitives": [
        {
          "attributes": {
            "NORMAL": 1,
            "POSITION": 0,
            "TEXCOORD_0": 2
          },
          "indices": 3,
          "material": 0,
          "mode": 4
        }
      ]
    },
    {
      "name": "Object_1",
      "primitives": [
        {
          "attributes": {
            "NORMAL": 5,
            "POSITION": 4,
            "TEXCOORD_0": 6
          },
          "indices": 7,
          "material": 1,
          "mode": 4
        }
      ]
    },
    {
      "name": "Object_2",
      "primitives": [
        {
          "attributes": {
            "NORMAL": 9,
            "POSITION": 8,
            "TEXCOORD_0": 10
          },
          "indices": 11,
          "material": 2,
          "mode": 4
        }
      ]
    }
  ],
  "nodes": [
    {
      "children": [
        1
      ],
      "matrix": [
        0.6962957978248596,
        0.0,
        0.0,
        0.0,
        0.0,
        1.5460872533898043e-16,
        -0.6962957978248596,
        0.0,
        0.0,
        0.6962957978248596,
        1.5460872533898043e-16,
        0.0,
        0.0,
        0.0,
        0.0,
        1.0
      ],
      "name": "Sketchfab_model"
    },
    {
      "children": [
        2
      ],
      "name": "root"
    },
    {
      "children": [
        3
      ],
      "matrix": [
        1.0,
        0.0,
        0.0,
        0.0,
        0.0,
        2.220446049250313e-16,
        1.0,
        0.0,
        0.0,
        -1.0,
        2.220446049250313e-16,
        0.0,
        0.0,
        0.0,
        0.0,
        1.0
      ],
      "name": "GLTF_SceneRootNode"
    },
    {
      "children": [
        4,
        6,
        8
      ],
      "name": "glasses OBJ.OBJ_0"
    },
    {
      "children": [
        5
      ],
      "name": "Frame_1"
    },
    {
      "mesh": 0,
      "name": "Object_5"
    },
    {
      "children": [
        7
      ],
      "name": "Handles_2"
    },
    {
      "mesh": 1,
      "name": "Object_7"
    },
    {
      "children": [
        9
      ],
      "name": "Glasses_3"
    },
    {
      "mesh": 2,
      "name": "Object_9"
    }
  ],
  "samplers": [
    {
      "magFilter": 9729,
      "minFilter": 9987,
      "wrapS": 10497,
      "wrapT": 10497
    }
  ],
  "scene": 0,
  "scenes": [
    {
      "name": "Sketchfab_Scene",
      "nodes": [
        0
      ]
    }
  ],
  "textures": [
    {
      "sampler": 0,
      "source": 0
    },
    {
      "sampler": 0,
      "source": 1
    }
  ]
}
